<svg width="148" height="73" viewBox="0 0 148 73" fill="none" xmlns="http://www.w3.org/2000/svg">
<path d="M10.9773 56.6308V71.5627H2.64204V36.6536H10.7045V50.1877H10.9943C11.5852 48.574 12.5511 47.3127 13.892 46.4036C15.2443 45.4945 16.8977 45.0399 18.8523 45.0399C20.6932 45.0399 22.2955 45.449 23.6591 46.2672C25.0227 47.074 26.0795 48.2161 26.8295 49.6933C27.5909 51.1706 27.9659 52.8979 27.9545 54.8752V71.5627H19.6193V56.5115C19.6307 55.057 19.267 53.9206 18.5284 53.1024C17.7898 52.2843 16.75 51.8752 15.4091 51.8752C14.5341 51.8752 13.7614 52.0683 13.0909 52.4547C12.4318 52.8297 11.9148 53.3695 11.5398 54.074C11.1761 54.7786 10.9886 55.6308 10.9773 56.6308Z" fill="white"/>
<path d="M40.5384 72.0058C38.8679 72.0058 37.3849 71.7274 36.0895 71.1706C34.8054 70.6024 33.7884 69.7502 33.0384 68.6138C32.2997 67.4661 31.9304 66.0286 31.9304 64.3013C31.9304 62.8468 32.1861 61.6195 32.6974 60.6195C33.2088 59.6195 33.9134 58.807 34.8111 58.182C35.7088 57.557 36.7429 57.0854 37.9134 56.7672C39.0838 56.4377 40.3338 56.2161 41.6634 56.1024C43.152 55.9661 44.3509 55.824 45.2599 55.6763C46.169 55.5172 46.8281 55.2956 47.2372 55.0115C47.6577 54.7161 47.8679 54.3013 47.8679 53.7672V53.682C47.8679 52.807 47.5668 52.1308 46.9645 51.6536C46.3622 51.1763 45.5497 50.9377 44.527 50.9377C43.4247 50.9377 42.5384 51.1763 41.8679 51.6536C41.1974 52.1308 40.7713 52.7899 40.5895 53.6308L32.902 53.3581C33.1293 51.7672 33.7145 50.3468 34.6577 49.0968C35.6122 47.8354 36.919 46.8468 38.5781 46.1308C40.2486 45.4036 42.2543 45.0399 44.5952 45.0399C46.2656 45.0399 47.8054 45.2388 49.2145 45.6365C50.6236 46.0229 51.8509 46.5911 52.8963 47.3411C53.9418 48.0797 54.7486 48.9888 55.3168 50.0683C55.8963 51.1479 56.1861 52.3808 56.1861 53.7672V71.5627H48.3452V67.9149H48.1406C47.6747 68.8013 47.0781 69.5513 46.3509 70.1649C45.6349 70.7786 44.7884 71.2388 43.8111 71.5456C42.8452 71.8524 41.7543 72.0058 40.5384 72.0058ZM43.1122 66.5513C44.0099 66.5513 44.8168 66.3695 45.5327 66.0058C46.2599 65.6422 46.8395 65.1422 47.2713 64.5058C47.7031 63.8581 47.919 63.1081 47.919 62.2558V59.7672C47.6804 59.8922 47.3906 60.0058 47.0497 60.1081C46.7202 60.2104 46.3565 60.307 45.9588 60.3979C45.5611 60.4888 45.152 60.5683 44.7315 60.6365C44.3111 60.7047 43.9077 60.7672 43.5213 60.824C42.7372 60.949 42.0668 61.1422 41.5099 61.4036C40.9645 61.6649 40.544 62.0058 40.2486 62.4263C39.9645 62.8354 39.8224 63.324 39.8224 63.8922C39.8224 64.7558 40.1293 65.4149 40.7429 65.8695C41.3679 66.324 42.1577 66.5513 43.1122 66.5513Z" fill="white"/>
<path d="M61.2827 71.5627V36.6536H69.6179V49.8638H69.7884C70.1293 49.0683 70.6122 48.3013 71.2372 47.5627C71.8736 46.824 72.6804 46.2218 73.6577 45.7558C74.6463 45.2786 75.8281 45.0399 77.2031 45.0399C79.0213 45.0399 80.7202 45.5172 82.2997 46.4717C83.8906 47.4263 85.1747 48.8979 86.152 50.8865C87.1293 52.8752 87.6179 55.4093 87.6179 58.4888C87.6179 61.4547 87.1463 63.9377 86.2031 65.9377C85.2713 67.9377 84.0099 69.4377 82.419 70.4377C80.8395 71.4377 79.0838 71.9377 77.152 71.9377C75.8338 71.9377 74.6918 71.7218 73.7259 71.2899C72.7599 70.8581 71.9474 70.2899 71.2884 69.5854C70.6406 68.8808 70.1406 68.1252 69.7884 67.3183H69.5327V71.5627H61.2827ZM69.4474 58.4718C69.4474 59.8808 69.6349 61.1081 70.0099 62.1536C70.3963 63.199 70.9474 64.0115 71.6634 64.5911C72.3906 65.1593 73.2599 65.4433 74.2713 65.4433C75.294 65.4433 76.1634 65.1593 76.8793 64.5911C77.5952 64.0115 78.1349 63.199 78.4986 62.1536C78.8736 61.1081 79.0611 59.8808 79.0611 58.4718C79.0611 57.0627 78.8736 55.8411 78.4986 54.807C78.1349 53.7729 77.5952 52.9718 76.8793 52.4036C76.1747 51.8354 75.3054 51.5513 74.2713 51.5513C73.2486 51.5513 72.3793 51.8297 71.6634 52.3865C70.9474 52.9433 70.3963 53.7388 70.0099 54.7729C69.6349 55.807 69.4474 57.0399 69.4474 58.4718Z" fill="white"/>
<path d="M91.9858 71.5627V45.3808H100.321V71.5627H91.9858ZM96.1619 42.3297C94.9915 42.3297 93.9858 41.9433 93.1449 41.1706C92.304 40.3865 91.8835 39.4433 91.8835 38.3411C91.8835 37.2502 92.304 36.3183 93.1449 35.5456C93.9858 34.7615 94.9915 34.3695 96.1619 34.3695C97.3438 34.3695 98.3494 34.7615 99.179 35.5456C100.02 36.3183 100.44 37.2502 100.44 38.3411C100.44 39.4433 100.02 40.3865 99.179 41.1706C98.3494 41.9433 97.3438 42.3297 96.1619 42.3297Z" fill="white"/>
<path d="M120.405 45.3808V51.5172H103.888V45.3808H120.405ZM107.348 39.1081H115.683V63.3297C115.683 63.8411 115.763 64.2558 115.922 64.574C116.092 64.8808 116.337 65.1024 116.655 65.2388C116.973 65.3638 117.354 65.4263 117.797 65.4263C118.115 65.4263 118.45 65.3979 118.803 65.3411C119.166 65.2729 119.439 65.2161 119.621 65.1706L120.882 71.1877C120.484 71.3013 119.922 71.4433 119.195 71.6138C118.479 71.7843 117.621 71.8922 116.621 71.9377C114.666 72.0286 112.99 71.8013 111.592 71.2558C110.206 70.699 109.143 69.8354 108.405 68.6649C107.678 67.4945 107.325 66.0229 107.348 64.2502V39.1081Z" fill="white"/>
<path d="M147.188 53.3752L139.534 53.5797C139.455 53.0343 139.239 52.5513 138.886 52.1308C138.534 51.699 138.074 51.3638 137.506 51.1252C136.949 50.8752 136.301 50.7502 135.562 50.7502C134.597 50.7502 133.773 50.9433 133.091 51.3297C132.42 51.7161 132.091 52.2388 132.102 52.8979C132.091 53.4093 132.295 53.8524 132.716 54.2274C133.148 54.6024 133.915 54.9036 135.017 55.1308L140.062 56.0854C142.676 56.5854 144.619 57.4149 145.892 58.574C147.176 59.7331 147.824 61.2672 147.835 63.1763C147.824 64.9718 147.29 66.5343 146.233 67.8638C145.188 69.1933 143.756 70.2274 141.938 70.9661C140.119 71.6933 138.04 72.057 135.699 72.057C131.96 72.057 129.011 71.2899 126.852 69.7558C124.705 68.2104 123.477 66.1422 123.17 63.5513L131.403 63.3468C131.585 64.3013 132.057 65.0286 132.818 65.5286C133.58 66.0286 134.551 66.2786 135.733 66.2786C136.801 66.2786 137.67 66.0797 138.341 65.682C139.011 65.2842 139.352 64.7558 139.364 64.0968C139.352 63.5058 139.091 63.0343 138.58 62.682C138.068 62.3183 137.267 62.0343 136.176 61.8297L131.608 60.9604C128.983 60.4831 127.028 59.6024 125.744 58.3183C124.46 57.0229 123.824 55.3752 123.835 53.3752C123.824 51.6252 124.29 50.1308 125.233 48.8922C126.176 47.6422 127.517 46.6877 129.256 46.0286C130.994 45.3695 133.045 45.0399 135.409 45.0399C138.955 45.0399 141.75 45.7843 143.795 47.2729C145.841 48.7502 146.972 50.7843 147.188 53.3752Z" fill="white"/>
<rect x="0.5" y="1.06265" width="15" height="15" rx="3.5" fill="#18181B" stroke="#27272A"/>
<rect x="20.5" y="1.06265" width="15" height="15" rx="3.5" fill="#4C1D95" stroke="#6D28D9"/>
<rect x="40.5" y="1.06265" width="15" height="15" rx="3.5" fill="#5B21B6" stroke="#7C3AED"/>
<rect x="60.5" y="1.06265" width="15" height="15" rx="3.5" fill="#6D28D9" stroke="#8B5CF6"/>
<rect x="80.5" y="1.06265" width="15" height="15" rx="3.5" fill="#7C3AED" stroke="#A78BFA"/>
<rect x="100.5" y="1.06265" width="15" height="15" rx="3.5" fill="#8B5CF6" stroke="#C4B5FD"/>
</svg>
